<svg width="58" height="58" viewBox="0 0 58 58" fill="none" xmlns="http://www.w3.org/2000/svg">
<rect x="39.9" y="10.0" width="18.3" height="8.3" fill="#E6500B"/>
<rect x="39.9" y="-0.0" width="18.3" height="8.3" fill="#E6500B"/>
<rect x="39.9" y="20.0" width="18.3" height="8.3" fill="#E6500B"/>
<rect x="39.9" y="29.9" width="18.3" height="8.3" fill="#E6500B"/>
<rect x="39.9" y="40.0" width="18.3" height="8.3" fill="#E6500B"/>
<rect x="39.9" y="50.1" width="18.3" height="8.3" fill="#E6500B"/>
<rect x="19.9" y="10.0" width="18.3" height="8.3" fill="#E6500B"/>
<rect x="19.9" y="-0.0" width="18.3" height="8.3" fill="#E6500B"/>
<rect x="19.9" y="20.0" width="18.3" height="8.3" fill="#E6500B"/>
<rect x="19.9" y="29.9" width="18.3" height="8.3" fill="#E6500B"/>
<rect x="19.9" y="40.0" width="18.3" height="8.3" fill="#E6500B"/>
<rect x="19.9" y="50.1" width="18.3" height="8.3" fill="#E6500B"/>
<rect x="0.0" y="10.0" width="18.3" height="8.3" fill="#E6500B"/>
<rect x="0.0" y="-0.0" width="18.3" height="8.3" fill="#E6500B"/>
<rect x="0.0" y="20.0" width="18.3" height="8.3" fill="#E6500B"/>
<rect x="0.0" y="29.9" width="18.3" height="8.3" fill="#E6500B"/>
<rect x="0.0" y="40.0" width="18.3" height="8.3" fill="#E6500B"/>
<rect x="0.0" y="50.1" width="18.3" height="8.3" fill="#E6500B"/>
</svg>
