<svg width="70" height="70" viewBox="0 0 70 70" fill="none" xmlns="http://www.w3.org/2000/svg">
<path d="M32.6356 31.0127C32.6061 31.1094 32.4825 31.125 32.3891 31.1205C30.3548 31.0179 28.0813 30.3079 25.9933 30.2983C24.8522 30.0463 23.6367 30.0492 22.5272 29.7162L22.5287 27.41L40.327 16.5856C40.5396 16.5678 41.7455 17.6175 42.003 17.8331C46.1409 21.3005 50.1573 24.9225 54.312 28.3557L54.3054 41.177L50.1992 42.1152L50.1661 39.586L46.9649 39.1444C46.8567 42.0208 47.1106 45.0057 46.9649 47.8701C46.8722 49.6804 46.213 51.4059 45.9363 53.1805L45.7288 53.0563L45.706 39.1177C45.6648 38.9957 45.4757 38.966 45.3661 38.9415C44.3067 38.7036 43.0713 38.7229 41.9972 38.4805L41.8265 38.5972L41.8206 53.8496L45.5214 53.7113L45.6288 53.8681L45.2661 55.3245C44.5517 55.4554 43.8269 55.3662 43.1081 55.4085C35.4034 55.8613 27.7216 56.6783 20.0331 57.4166C19.7189 57.3816 19.3186 57.1958 19.2627 56.8523C19.1134 55.9401 19.3907 54.7157 19.2267 53.7693C19.0862 53.5723 16.7413 53.6012 16.3529 53.6228C16.1998 53.631 15.7488 53.6481 15.6995 53.7715C15.6723 54.6666 15.7974 55.5885 15.7341 56.488C15.7062 56.888 15.6458 57.5035 15.1139 57.4842C14.2803 57.4545 14.5827 56.381 14.5584 55.8137C14.551 55.6383 14.4856 55.4755 14.4789 55.3C14.4686 55.0287 14.5474 53.7529 14.4135 53.6585H8.01103L7.83224 57.1162C7.61667 57.5251 6.69258 57.3192 6.69258 56.9304V53.6258H5.48008C5.20123 53.6258 4.96726 53.0779 5.15709 52.779C5.18357 52.7381 5.45874 52.5114 5.48008 52.5114H6.69258V38.624H5.33293C5.31233 38.624 5.05776 38.3645 5.04084 38.3259C4.91061 38.0382 5.10779 37.436 5.4065 37.436H6.69258V22.3235C6.69258 22.3026 6.91698 22.0231 6.95745 21.9971C7.23923 21.8164 7.86829 22.0253 7.86829 22.2491V27.7446L7.97866 27.8561H14.3723L14.4826 27.7446V23.8832C14.4826 23.507 15.4884 23.2862 15.6429 23.8245C15.7459 24.1828 15.6473 25.2816 15.6554 25.7425C15.6591 25.9373 15.7326 26.1179 15.7348 26.3298C15.7385 26.6034 15.5178 27.8561 15.8423 27.8561H21.5744C21.8356 27.8561 21.8474 28.4419 21.8327 28.636C21.8099 28.9326 21.7643 28.9802 21.4839 29.0233C20.0456 29.2471 18.1885 28.9653 16.7244 28.9631C16.4058 28.9631 16.0711 29.1066 15.7319 29.0441V30.1206C15.7319 30.128 15.5502 30.2849 15.7694 30.2329C16.1402 30.1459 16.3933 29.5995 16.7936 30.2351C17.2343 30.9354 15.9291 31.2714 15.7496 31.7718C15.6591 32.0253 15.5958 34.3106 15.6753 34.4489L19.0839 36.9097L19.2598 36.8041V30.4172C19.2598 30.2418 19.9985 30.1712 20.1795 30.1578C20.451 30.1377 21.7466 30.1154 21.9062 30.1942C21.9901 30.2351 22.0394 30.3273 22.0505 30.4195L22.1086 55.9074C22.2528 56.2538 22.7877 56.1646 23.118 56.149C24.382 56.0873 25.7461 55.8353 27.0145 55.7052C28.8399 55.5178 30.7771 55.4093 32.59 55.1751C33.2771 55.0866 33.3544 54.9275 33.297 54.219C34.0666 54.1454 34.8406 54.1752 35.6117 54.1447C36.7624 54.0993 37.916 54.0072 39.0674 53.9232C39.3257 53.9046 40.2726 54.0161 40.3425 53.8005V38.2634L33.3713 37.2866L33.3022 34.7202L28.2998 34.1686V30.9755L32.487 31.4603C32.8202 31.6357 32.5208 32.997 32.6481 33.3768C32.6863 33.4921 32.8099 33.5285 32.9137 33.5538C38.6628 34.5723 44.4244 35.5417 50.2007 36.3967V29.453L47.0407 26.9655V35.3574L45.8605 35.1655C45.7936 32.6587 45.9635 30.0938 45.8679 27.5937C45.8488 27.1015 45.7406 26.5692 45.7767 26.0525C44.5965 24.8214 43.1103 23.9538 41.8588 22.8074L41.7492 34.3545L41.6374 34.5403C41.3806 34.3166 40.5007 34.3983 40.3896 34.1694L40.3513 21.8804C40.288 21.5428 39.4029 21.1206 39.1741 20.8351L39.0807 20.8113L32.6363 25.0348V31.0127H32.6356ZM14.4826 31.3101V29.082L14.3759 28.9883C13.081 29.0515 11.7802 28.9594 10.4743 28.9675C9.85774 28.9712 9.07565 28.9192 8.4922 28.9705C8.38258 28.9802 8.28105 28.9118 8.309 29.0813L12.9199 32.4513C13.2098 32.4951 14.1648 31.4789 14.4833 31.3094L14.4826 31.3101ZM12.0569 33.2765L7.97939 30.1593C7.87271 30.2277 7.87712 30.3042 7.86462 30.415C7.71967 31.6989 7.78883 34.2058 7.86462 35.5455C7.88007 35.825 7.99116 36.1008 7.94187 36.3959L12.0569 33.2757V33.2765ZM14.5562 33.5003L14.5415 32.7933C14.4966 32.4936 13.8749 33.0854 13.8955 33.1657L14.5562 33.5003ZM14.3723 37.4367L14.4826 37.3252V35.0228C14.334 34.8087 13.0509 33.8549 12.9125 33.8831L8.52899 37.4367H14.3723ZM15.6591 35.877V37.3252L15.7694 37.4367H17.6066C17.6419 37.4367 17.7434 37.5475 17.8258 37.5126C17.8994 37.5089 17.8722 37.4159 17.8288 37.3617C17.6353 37.12 16.7803 36.6524 16.4721 36.4301C16.3507 36.3424 15.7893 35.7417 15.6591 35.8778V35.877ZM14.4826 45.4569V38.7363L14.3723 38.6248H7.94187C7.94923 38.8024 7.91832 38.9905 7.95732 39.166C8.00809 39.392 9.75253 41.0238 10.0718 41.3361C11.3675 42.5992 12.6793 43.8548 14.0036 45.0889C14.0544 45.1358 14.4444 45.503 14.4826 45.4569ZM19.2598 46.3483V38.7363L19.1494 38.6248H15.6583L15.7312 46.3483H19.2598ZM7.94187 46.3483H13.674L7.90582 40.7777L7.94187 46.3483ZM19.2598 47.5363C18.4255 47.5519 17.5948 47.5326 16.7605 47.4969C16.6589 47.4924 16.6332 47.4293 16.542 47.5735L19.2598 50.1354V47.5363ZM13.2333 47.5363H7.97866C7.87565 47.6448 7.87492 47.9236 7.86682 48.0902C7.80943 49.3109 7.84549 50.6372 7.97939 51.8445L13.2333 47.5363ZM14.4826 48.056L9.04401 52.5114H14.3723L14.4826 52.3999V48.0552V48.056ZM16.5839 49.1287C16.3212 48.8864 16.0409 48.6634 15.8055 48.3898L15.6583 48.4656L15.74 52.4296L19.1752 52.501C19.2752 52.437 19.2716 51.7865 19.1921 51.6557C18.3423 50.794 17.4675 49.9443 16.5832 49.128L16.5839 49.1287Z" fill="#E6500B"/>
<path d="M54.6107 29.0077C54.6482 28.7884 55.6945 28.3386 55.9579 28.2152C56.1514 28.1245 56.3824 28.0278 56.595 28.0048L56.5597 27.8561L40.9782 14.2862C38.0815 16.0838 35.1709 17.8591 32.2751 19.6575C28.9083 21.7488 25.2487 23.8468 21.9857 26.0436C21.5251 26.3536 21.7231 26.2525 21.5965 26.6896C21.5281 26.9253 20.8071 26.9528 20.5503 26.9692C19.2613 27.0487 17.9023 26.9365 16.617 26.9275C16.425 26.8071 16.4103 26.6978 16.3904 26.4882C16.3521 26.0875 16.3396 24.6839 16.5405 24.4021C16.628 24.2802 16.7951 24.2014 16.9157 24.1129C23.8074 20.2902 30.6513 16.3656 37.5849 12.6201C38.3913 12.1845 39.5265 11.4812 40.3278 11.1586C40.5183 11.082 40.6772 10.9861 40.8965 11.0017C41.4373 11.0418 42.8889 12.6209 43.3664 13.0424C48.8293 17.8576 54.1214 22.8193 59.6447 27.561C59.8646 27.8635 59.7719 28.4233 59.4563 28.63L55.0926 30.4589L54.6115 30.5295V29.0069L54.6107 29.0077Z" fill="#E6500B"/>
<path d="M62.4743 40.4068L61.6915 44.4808L48.1428 46.1996L48.7321 43.2675L48.9301 43.0222L62.4743 40.4068Z" fill="#E6500B"/>
<path d="M56.5943 50.0618L55.8195 54.3655L55.6621 54.503L46.3851 54.0986C46.5764 53.1849 46.7022 52.2393 46.9436 51.3382C46.9951 51.1464 47.0539 50.6565 47.2364 50.5941L56.5943 50.0625V50.0618Z" fill="#E6500B"/>
<path d="M32.7827 54.7395L22.5669 55.8539V51.9917L32.7827 51.5092V54.7395Z" fill="#E6500B"/>
<path d="M59.0171 59.7859L51.383 58.8187L52.1784 54.8443C52.366 54.6049 52.8508 54.8108 53.101 54.8168C55.1206 54.8658 57.3528 54.7803 59.3496 54.9632C59.5122 54.9781 59.6763 55.0249 59.8315 55.074L59.0171 59.7851V59.7859Z" fill="#E6500B"/>
<path d="M64.2386 46.5706L61.9233 59.7889L61.7695 60C61.434 59.9569 61.083 59.8944 60.7468 59.8647C60.5055 59.8431 59.7609 59.9799 59.7565 59.6833C59.755 59.5718 59.861 59.4186 59.883 59.287C60.5739 55.1602 61.2515 51.0312 62.0527 46.9245L62.1366 46.7862L64.2394 46.5713L64.2386 46.5706Z" fill="#E6500B"/>
<path d="M22.5669 42.5605V38.253L29.4226 38.8627L29.5484 38.9586V42.672C29.1636 42.9426 28.5485 42.7174 28.1181 42.7062L22.5662 42.5605H22.5669Z" fill="#E6500B"/>
<path d="M61.6657 44.9373L60.8608 49.4336C60.6519 49.4566 60.4385 49.5213 60.231 49.5399C58.7456 49.6737 57.1667 49.7941 55.6783 49.841C55.4546 49.8476 54.4297 49.8833 54.3473 49.7659L55.1655 45.6844L61.665 44.9373H61.6657Z" fill="#E6500B"/>
<path d="M54.7571 45.7543L53.978 49.8462C52.814 50.0231 51.6324 50.0045 50.4589 50.0618C49.9012 50.0893 49.2508 50.1963 48.6976 50.2127C48.4665 50.2194 47.3754 50.2543 47.2923 50.1391L48.0141 46.5884L54.7579 45.755L54.7571 45.7543Z" fill="#E6500B"/>
<path d="M29.0349 51.1383C29.0172 51.2015 28.859 51.3174 28.7759 51.3219C27.6995 51.3881 26.6216 51.4133 25.5445 51.4728C24.6947 51.5196 23.5109 51.7672 22.678 51.6207C22.5964 51.6066 22.5331 51.591 22.5022 51.504L22.5669 47.6107L28.9135 47.4575C28.9569 47.4642 29.0349 47.6367 29.0349 47.6486V51.139V51.1383Z" fill="#E6500B"/>
<path d="M26.3156 38.2538V34.5039C26.3156 34.4623 26.4664 34.3389 26.5554 34.3374C27.1205 34.3262 27.9673 34.5537 28.5581 34.6147C29.9656 34.7589 31.4003 34.799 32.7842 35.0979C32.9799 35.2674 32.7879 35.8235 32.7805 36.0606C32.7584 36.7721 32.899 37.9624 32.7835 38.5883C32.768 38.6731 32.7555 38.7392 32.6628 38.769L26.3163 38.2545L26.3156 38.2538Z" fill="#E6500B"/>
<path d="M27.1241 47.091V43.0066L32.7827 43.3404V46.9795L32.6724 47.091H27.1241Z" fill="#E6500B"/>
<path d="M51.8907 54.7402L51.0144 58.7176L45.4264 58.0775L46.2277 54.6242L51.8907 54.7402Z" fill="#E6500B"/>
<path d="M22.4934 30.3444L22.6148 30.2448C24.3879 30.3667 26.1677 30.6128 27.9231 30.9094C28.0482 31.9368 28.0247 32.994 27.9732 34.0251L27.8849 34.0839L22.6177 33.5768C22.5684 33.5642 22.4934 33.4081 22.4934 33.3887V30.3436V30.3444Z" fill="#E6500B"/>
<path d="M26.7563 43.0066V47.091C25.7836 47.2479 24.7661 47.1349 23.7765 47.1624C23.4815 47.1705 22.5471 47.4345 22.4897 47.0523L22.5669 42.8579L26.7563 43.0066Z" fill="#E6500B"/>
<path d="M59.9588 54.5744C59.7742 54.7662 57.8377 54.532 57.4433 54.5142C57.0159 54.4949 56.581 54.5343 56.1536 54.5172C56.3978 53.1976 56.5075 51.8021 56.8488 50.5041C56.8842 50.3703 56.8981 50.1666 57.0342 50.0975L60.7527 49.9852L59.9581 54.5744H59.9588Z" fill="#E6500B"/>
<path d="M66 46.9445L63.8193 59.7733L63.7486 59.8669L62.4743 59.9376L64.8287 46.6464L66 46.9445Z" fill="#E6500B"/>
<path d="M22.4934 34.0578C22.5 34.0184 22.5721 33.9441 22.575 33.8787L25.7586 34.2489C25.8381 34.2392 26.0213 34.3864 26.0213 34.4288V38.1423L25.8557 38.2397C25.1133 38.1876 24.3725 38.0887 23.6323 38.0322C23.2644 38.004 22.781 38.1356 22.4941 37.92V34.0586L22.4934 34.0578Z" fill="#E6500B"/>
<path d="M32.7827 50.9896L32.5988 51.1011L29.4505 51.2527C29.3321 51.2252 29.3299 50.8721 29.3247 50.7703C29.3034 50.3703 29.2725 47.5616 29.4071 47.4687C30.0531 47.4411 30.705 47.4828 31.3517 47.4657C31.7806 47.4545 32.392 47.2293 32.782 47.4999V50.9903L32.7827 50.9896Z" fill="#E6500B"/>
<path d="M32.7835 42.8579L29.9177 42.7828L29.9229 38.9281L32.7474 39.1437C33.0461 40.3443 32.6871 41.6275 32.7835 42.8579Z" fill="#E6500B"/>
<path d="M62.3272 46.0509L63.2093 40.8521C63.2638 40.7978 64.6676 41.0878 64.4616 41.4788L63.6177 45.906L62.3272 46.0502V46.0509Z" fill="#E6500B"/>
</svg>
